<!DOCTYPE svg PUBLIC "-//W3C//DTD SVG 1.1//EN" "http://www.w3.org/Graphics/SVG/1.1/DTD/svg11.dtd">
<!-- Uploaded to: SVG Repo, www.svgrepo.com, Transformed by: SVG Repo Mixer Tools -->
<svg fill="#ffffff" height="800px" width="800px" version="1.1" id="Layer_1" xmlns="http://www.w3.org/2000/svg" xmlns:xlink="http://www.w3.org/1999/xlink" viewBox="0 0 480 480" xml:space="preserve" stroke="#ffffff">
<g id="SVGRepo_bgCarrier" stroke-width="0"/>
<g id="SVGRepo_tracerCarrier" stroke-linecap="round" stroke-linejoin="round"/>
<g id="SVGRepo_iconCarrier"> <g> <g> <path d="M265.248,0h-200c-13.232,0-24,10.768-24,24v360c0,13.232,10.768,24,24,24c4.416,0,8-3.584,8-8c0-4.416-3.584-8-8-8 c-4.408,0-8-3.592-8-8V24c0-4.408,3.592-8,8-8h200c4.408,0,8,3.592,8,8v104c0,4.416,3.584,8,8,8c4.416,0,8-3.584,8-8V24 C289.248,10.768,278.48,0,265.248,0z"/> </g> </g> <g> <g> <circle cx="164.624" cy="92.624" r="12.624"/> </g> </g> <g> <g> <path d="M449.208,471.2l-25.416-255.584C420.048,179.352,389.936,152,353.768,152h-72.52c-4.416,0-8,3.584-8,8v162.216 l-91.536-52.312c29.552-7.392,51.536-34.096,51.536-65.904c0-37.496-30.504-68-68-68c-37.496,0-68,30.504-68,68 c0,23.088,11.592,43.496,29.232,55.792c-8.208,3.688-15.384,9.72-20.12,17.912c-10.408,18.032-6.56,41.136,8.76,54.992 c0.6,1.08,1.456,2.032,2.552,2.768L202.408,392h-33.032c-0.024,0-0.04,0.016-0.064,0.016s-0.04-0.016-0.064-0.016h-72 c-4.416,0-8,3.584-8,8v32c0,1.288,0.336,2.496,0.92,3.576c3.96,17.896,20.688,35.624,43.336,35.624 c19.928,0,35.168-13.752,41.256-29.248c7.736,7.8,18.288,13.248,30.744,13.248c12.64,0,24.768-6.048,33.192-15.8l9.224,34.664 c0.928,3.496,4.104,5.936,7.728,5.936h185.6c2.256,0,4.416-0.96,5.928-2.632C448.688,475.696,449.432,473.456,449.208,471.2z M161.248,431.976c-2.424,11.4-13.384,23.224-27.744,23.224c-14.88,0-26.104-12.696-27.976-24.456 c-0.064-0.392-0.16-0.776-0.28-1.152V408h56V431.976z M113.248,204c0-28.672,23.328-52,52-52s52,23.328,52,52s-23.328,52-52,52 S113.248,232.672,113.248,204z M231.688,420.872c-3.752,8.832-13.544,18.328-26.184,18.328c-14.88,0-26.104-12.696-27.976-24.456 c-0.064-0.376-0.152-0.736-0.264-1.088l0.048-5.656h47.936c0.312,0,0.576-0.144,0.872-0.176l5.08,3.384l1.992,7.472 C232.6,419.336,232.048,420.024,231.688,420.872z M261.792,464l-15.912-59.824c-0.496-1.88-1.672-3.512-3.288-4.6l-113.696-75.864 c-0.432-0.608-0.952-1.16-1.56-1.64c-11.016-8.672-14.072-24.312-7.112-36.368c6.968-12.056,22.048-17.224,35.064-12.016 c0.504,0.2,1.024,0.336,1.552,0.424l120.44,68.832c2.48,1.416,5.52,1.416,7.984-0.024c2.464-1.432,3.984-4.072,3.984-6.92V168 h64.52c27.944,0,51.2,21.176,54.104,49.24L432.416,464H261.792z"/> </g> </g> <g> <g> <path d="M53.92,441.664c-4.416,0-8,3.584-8,8C45.912,457.568,39.488,464,31.584,464s-14.336-6.432-14.336-14.336 s6.432-14.336,14.336-14.336c4.416,0,8-3.584,8-8c0-4.416-3.584-8-8-8c-16.728,0.008-30.336,13.616-30.336,30.336 c0,16.72,13.608,30.336,30.336,30.336s30.336-13.608,30.336-30.336C61.92,445.248,58.336,441.664,53.92,441.664z"/> </g> </g> <g> <g> <path d="M417.248,0c-4.416,0-8,3.584-8,8v22.4c0,4.416,3.584,8,8,8c4.416,0,8-3.584,8-8V8C425.248,3.584,421.664,0,417.248,0z"/> </g> </g> <g> <g> <path d="M417.248,89.6c-4.416,0-8,3.584-8,8V120c0,4.416,3.584,8,8,8c4.416,0,8-3.584,8-8V97.6 C425.248,93.184,421.664,89.6,417.248,89.6z"/> </g> </g> <g> <g> <path d="M470.752,56h-22.4c-4.416,0-8,3.584-8,8s3.576,8,8,8h22.4c4.416,0,8-3.584,8-8S475.168,56,470.752,56z"/> </g> </g> <g> <g> <path d="M385.248,56h-22.4c-4.416,0-8,3.584-8,8s3.584,8,8,8h22.4c4.416,0,8-3.584,8-8S389.664,56,385.248,56z"/> </g> </g> <g> <g> <path d="M249.248,48h-8c-4.408,0-8-3.592-8-8c0-4.416-3.584-8-8-8h-120c-4.416,0-8,3.584-8,8c0,4.408-3.592,8-8,8h-8 c-4.416,0-8,3.584-8,8v88c0,4.416,3.584,8,8,8s8-3.584,8-8V64c10.432,0,19.328-6.688,22.632-16h106.744 c3.304,9.312,12.2,16,22.632,16v80c-0.008,4.416,3.576,8,7.992,8c4.416,0,8-3.584,8-8V56C257.248,51.584,253.664,48,249.248,48z"/> </g> </g> </g>
</svg>